<svg xmlns="http://www.w3.org/2000/svg" width="70" height="70" viewBox="1255 3833.95 70 70"><g data-name="Group 77"><path d="M0 34.9a35 35 0 1 1 0 .1z" fill-rule="evenodd" fill="url(&quot;#a&quot;)" transform="translate(1255 3834)" data-name="Ellipse 31"/><g data-name="send (2) 1"><path d="M1307.61 3857.99a3.305 3.305 0 0 1-.242 3.721l-18.474 24.107a3.34 3.34 0 0 1-3.3 1.255 3.339 3.339 0 0 1-2.597-2.389l-2.733-9.729-.285-1.011-.734-.753-7.059-7.231a3.339 3.339 0 0 1-.77-3.445 3.342 3.342 0 0 1 2.737-2.23l30.114-3.945a3.305 3.305 0 0 1 3.344 1.65Z" fill="#fff" fill-rule="evenodd" data-name="Vector"/><path d="m1280.264 3874.955 2.733 9.73a3.339 3.339 0 0 0 2.598 2.388 3.34 3.34 0 0 0 3.299-1.255l18.474-24.107a3.305 3.305 0 0 0 .242-3.72l-27.631 15.953.285 1.011Z" fill="#fff" fill-rule="evenodd" data-name="Vector"/><path d="M13.243 1.019c0 .562-.455 1.018-1.019 1.018H0L.26 1.02 0 0h12.224c.563 0 1.02.456 1.02 1.019Z" fill-rule="evenodd" fill="url(&quot;#b&quot;)" transform="rotate(-30 7867.095 -450.508)" data-name="Vector"/><path d="M0 1.019h12.224c.563 0 1.02-.457 1.02-1.019H.258L0 1.019Z" fill-rule="evenodd" fill="url(&quot;#c&quot;)" transform="rotate(-30 7868.996 -451.017)" data-name="Vector"/></g></g><defs><linearGradient x1=".709" y1=".028" x2="0" y2="1" id="a"><stop stop-color="#747def" offset="0"/><stop stop-color="#5e3be1" offset="1"/></linearGradient><linearGradient x1=".709" y1=".028" x2="0" y2="1" id="b"><stop stop-color="#747def" offset="0"/><stop stop-color="#5e3be1" offset="1"/></linearGradient><linearGradient x1=".709" y1=".028" x2="0" y2="1" id="c"><stop stop-color="#747def" offset="0"/><stop stop-color="#5e3be1" offset="1"/></linearGradient></defs></svg>